<svg width="952" height="952" viewBox="0 0 952 952" fill="none" xmlns="http://www.w3.org/2000/svg">
<g filter="url(#filter0_dd_4005_1188)">
<circle cx="475.524" cy="474.524" r="471.524" transform="rotate(0.244179 475.524 474.524)" fill="white"/>
<rect x="77.8887" y="347.089" width="241.001" height="261.958" rx="45" transform="rotate(0.244179 77.8887 347.089)" fill="#3788E5"/>
<path d="M368.496 440.893L368.893 347.803L388.575 347.887L388.411 386.296L428.365 386.466L428.529 348.057L448.165 348.141L447.768 441.231L428.132 441.147L428.296 402.693L388.342 402.523L388.178 440.977L368.496 440.893ZM483.535 442.702C479.081 442.683 475.114 441.893 471.636 440.333C468.158 438.742 465.41 436.412 463.393 433.343C461.406 430.244 460.422 426.391 460.442 421.785C460.459 417.906 461.185 414.652 462.62 412.021C464.056 409.391 466.004 407.278 468.465 405.683C470.927 404.087 473.72 402.887 476.844 402.082C479.999 401.277 483.305 400.715 486.761 400.397C490.823 399.99 494.098 399.61 496.584 399.257C499.07 398.874 500.876 398.305 502 397.553C503.125 396.8 503.69 395.681 503.696 394.196L503.698 393.924C503.71 391.045 502.81 388.814 500.999 387.23C499.218 385.647 496.676 384.848 493.373 384.834C489.888 384.819 487.112 385.58 485.045 387.117C482.978 388.623 481.606 390.526 480.929 392.826L463.027 391.296C463.954 387.057 465.757 383.398 468.437 380.319C471.117 377.209 474.567 374.83 478.786 373.181C483.035 371.502 487.948 370.674 493.524 370.698C497.403 370.715 501.113 371.185 504.654 372.109C508.226 373.034 511.387 374.456 514.136 376.377C516.916 378.298 519.102 380.762 520.696 383.769C522.289 386.745 523.077 390.309 523.059 394.461L522.858 441.551L504.495 441.473L504.536 431.791L503.991 431.789C502.86 433.966 501.352 435.884 499.466 437.542C497.58 439.171 495.317 440.449 492.677 441.377C490.037 442.275 486.99 442.716 483.535 442.702ZM489.137 429.362C491.986 429.374 494.503 428.824 496.69 427.712C498.877 426.57 500.595 425.032 501.846 423.098C503.097 421.164 503.727 418.969 503.738 416.515L503.769 409.106C503.162 409.497 502.327 409.857 501.265 410.186C500.233 410.485 499.065 410.768 497.761 411.035C496.457 411.272 495.153 411.493 493.849 411.7C492.545 411.876 491.363 412.038 490.301 412.185C488.027 412.508 486.04 413.03 484.34 413.75C482.64 414.47 481.318 415.45 480.373 416.688C479.429 417.896 478.952 419.409 478.945 421.227C478.933 423.864 479.879 425.883 481.783 427.285C483.716 428.657 486.168 429.349 489.137 429.362ZM537.881 441.615L538.179 371.798L556.951 371.878L556.899 384.059L557.627 384.062C558.918 379.734 561.068 376.471 564.077 374.272C567.087 372.042 570.546 370.935 574.455 370.952C575.425 370.956 576.47 371.021 577.591 371.147C578.712 371.273 579.696 371.444 580.543 371.66L580.47 388.842C579.562 388.565 578.306 388.317 576.7 388.098C575.095 387.879 573.626 387.767 572.293 387.761C569.444 387.749 566.896 388.359 564.648 389.592C562.431 390.795 560.666 392.484 559.354 394.661C558.072 396.837 557.425 399.35 557.413 402.198L557.245 441.698L537.881 441.615ZM609.791 401.558L609.619 441.921L590.256 441.838L590.553 372.021L609.008 372.099L608.955 384.417L609.773 384.421C611.336 380.367 613.94 377.166 617.587 374.818C621.233 372.439 625.648 371.261 630.829 371.283C635.678 371.304 639.901 372.383 643.498 374.519C647.094 376.656 649.885 379.698 651.868 383.646C653.851 387.563 654.831 392.234 654.808 397.658L654.619 442.113L635.255 442.03L635.43 401.03C635.478 396.758 634.402 393.42 632.2 391.017C629.998 388.583 626.958 387.358 623.079 387.341C620.473 387.33 618.168 387.881 616.163 388.994C614.188 390.106 612.636 391.736 611.506 393.883C610.406 396 609.834 398.558 609.791 401.558ZM701.692 443.677C694.51 443.646 688.335 442.165 683.165 439.234C678.026 436.273 674.074 432.105 671.309 426.729C668.544 421.323 667.178 414.939 667.209 407.575C667.24 400.393 668.661 394.096 671.471 388.684C674.282 383.272 678.225 379.061 683.298 376.052C688.402 373.044 694.378 371.554 701.226 371.583C705.832 371.603 710.117 372.364 714.08 373.865C718.074 375.337 721.55 377.549 724.507 380.501C727.494 383.453 729.812 387.16 731.46 391.621C733.107 396.053 733.919 401.238 733.893 407.177L733.871 412.496L674.917 412.244L674.968 400.244L715.695 400.418C715.706 397.63 715.111 395.158 713.908 393.001C712.705 390.845 711.03 389.156 708.884 387.934C706.768 386.683 704.301 386.051 701.483 386.039C698.544 386.027 695.935 386.697 693.656 388.051C691.408 389.375 689.643 391.17 688.36 393.438C687.078 395.675 686.416 398.172 686.374 400.929L686.325 412.338C686.311 415.793 686.934 418.78 688.196 421.301C689.489 423.822 691.314 425.769 693.671 427.143C696.029 428.516 698.829 429.21 702.072 429.224C704.223 429.233 706.194 428.938 707.985 428.34C709.775 427.741 711.309 426.839 712.587 425.632C713.865 424.426 714.841 422.945 715.515 421.19L733.419 422.448C732.492 426.747 730.612 430.497 727.78 433.697C724.979 436.867 721.362 439.336 716.93 441.105C712.529 442.844 707.449 443.701 701.692 443.677ZM804.682 392.843L786.95 393.858C786.654 392.342 786.008 390.975 785.013 389.759C784.019 388.512 782.705 387.522 781.071 386.787C779.469 386.023 777.546 385.636 775.304 385.626C772.304 385.614 769.771 386.239 767.705 387.503C765.639 388.737 764.601 390.399 764.592 392.49C764.585 394.157 765.246 395.568 766.574 396.726C767.903 397.883 770.187 398.817 773.426 399.528L786.052 402.127C792.833 403.55 797.884 405.814 801.205 408.919C804.525 412.024 806.174 416.092 806.153 421.122C806.133 425.698 804.768 429.707 802.056 433.15C799.375 436.593 795.696 439.274 791.022 441.194C786.377 443.083 781.025 444.015 774.964 443.989C765.722 443.95 758.366 441.994 752.898 438.122C747.46 434.22 744.285 428.934 743.374 422.263L762.424 421.345C762.988 424.165 764.373 426.323 766.578 427.817C768.784 429.281 771.614 430.02 775.069 430.035C778.463 430.049 781.193 429.409 783.259 428.115C785.356 426.791 786.423 425.083 786.463 422.992C786.44 421.235 785.704 419.792 784.254 418.665C782.804 417.507 780.566 416.619 777.538 416L765.457 413.539C758.645 412.147 753.579 409.761 750.26 406.384C746.972 403.006 745.339 398.711 745.361 393.499C745.38 389.014 746.608 385.156 749.046 381.924C751.515 378.692 754.965 376.206 759.397 374.468C763.858 372.729 769.074 371.872 775.044 371.898C783.862 371.935 790.793 373.829 795.838 377.577C800.913 381.326 803.861 386.415 804.682 392.843ZM876.557 393.149L858.825 394.164C858.528 392.648 857.883 391.281 856.888 390.065C855.893 388.818 854.579 387.828 852.946 387.094C851.343 386.329 849.42 385.942 847.178 385.933C844.178 385.92 841.645 386.546 839.579 387.809C837.513 389.043 836.476 390.705 836.467 392.796C836.46 394.463 837.12 395.875 838.449 397.032C839.777 398.189 842.061 399.123 845.301 399.834L857.926 402.433C864.708 403.856 869.759 406.12 873.079 409.225C876.399 412.33 878.048 416.398 878.027 421.428C878.007 426.004 876.642 430.013 873.93 433.456C871.249 436.899 867.571 439.581 862.896 441.5C858.251 443.39 852.899 444.321 846.838 444.295C837.596 444.256 830.241 442.3 824.772 438.429C819.334 434.527 816.16 429.24 815.249 422.57L834.298 421.651C834.862 424.472 836.247 426.629 838.453 428.123C840.659 429.587 843.489 430.327 846.943 430.341C850.337 430.356 853.067 429.716 855.133 428.422C857.23 427.097 858.298 425.39 858.337 423.299C858.314 421.541 857.578 420.099 856.128 418.971C854.679 417.813 852.44 416.925 849.412 416.306L837.332 413.846C830.519 412.453 825.454 410.068 822.135 406.69C818.846 403.312 817.213 399.017 817.235 393.805C817.254 389.32 818.483 385.462 820.921 382.23C823.389 378.998 826.839 376.513 831.271 374.774C835.733 373.035 840.949 372.179 846.918 372.204C855.736 372.242 862.668 374.135 867.712 377.884C872.787 381.633 875.735 386.721 876.557 393.149ZM367.836 595.892L368.232 502.802L430.959 503.069L430.89 519.296L387.845 519.113L387.75 541.294L427.568 541.464L427.499 557.691L387.681 557.521L387.586 579.749L430.813 579.933L430.744 596.16L367.836 595.892ZM446.21 596.226L446.607 503.136L483.334 503.292C490.364 503.322 496.358 504.605 501.317 507.142C506.307 509.648 510.095 513.194 512.681 517.781C515.298 522.338 516.594 527.692 516.567 533.843C516.541 540.025 515.185 545.337 512.499 549.781C509.814 554.193 505.936 557.571 500.865 559.913C495.825 562.255 489.729 563.411 482.578 563.381L457.987 563.276L458.054 547.458L479.463 547.549C483.221 547.565 486.344 547.063 488.833 546.043C491.323 545.024 493.178 543.486 494.398 541.431C495.65 539.375 496.282 536.817 496.295 533.757C496.308 530.666 495.698 528.057 494.465 525.931C493.261 523.804 491.405 522.19 488.894 521.089C486.414 519.957 483.28 519.383 479.492 519.367L466.22 519.31L465.892 596.31L446.21 596.226ZM496.663 554.077L519.618 596.539L497.891 596.446L475.436 553.986L496.663 554.077ZM530.209 596.584L530.606 503.494L567.333 503.65C574.393 503.68 580.403 505.054 585.361 507.773C590.319 510.46 594.091 514.189 596.677 518.957C599.293 523.696 600.588 529.156 600.562 535.338C600.535 541.519 599.179 546.968 596.492 551.684C593.805 556.4 589.926 560.065 584.854 562.68C579.813 565.295 573.716 566.587 566.565 566.557L543.156 566.457L543.223 550.684L563.45 550.771C567.238 550.787 570.362 550.148 572.822 548.856C575.313 547.533 577.169 545.708 578.391 543.38C579.643 541.021 580.276 538.312 580.289 535.251C580.302 532.16 579.693 529.461 578.46 527.152C577.258 524.814 575.417 523.003 572.938 521.72C570.458 520.406 567.31 519.741 563.492 519.725L550.219 519.668L549.891 596.668L530.209 596.584Z" fill="#3788E5"/>
</g>
<path d="M220.808 484.057V498.682H173.308V484.057H220.808ZM178.87 446.995V537.995H160.12V446.995H178.87ZM234.183 446.995V537.995H215.495V446.995H234.183Z" fill="white"/>
<defs>
<filter id="filter0_dd_4005_1188" x="0" y="0" width="951.048" height="951.048" filterUnits="userSpaceOnUse" color-interpolation-filters="sRGB">
<feFlood flood-opacity="0" result="BackgroundImageFix"/>
<feColorMatrix in="SourceAlpha" type="matrix" values="0 0 0 0 0 0 0 0 0 0 0 0 0 0 0 0 0 0 127 0" result="hardAlpha"/>
<feOffset dy="1"/>
<feGaussianBlur stdDeviation="1"/>
<feColorMatrix type="matrix" values="0 0 0 0 0 0 0 0 0 0 0 0 0 0 0 0 0 0 0.3 0"/>
<feBlend mode="normal" in2="BackgroundImageFix" result="effect1_dropShadow_4005_1188"/>
<feColorMatrix in="SourceAlpha" type="matrix" values="0 0 0 0 0 0 0 0 0 0 0 0 0 0 0 0 0 0 127 0" result="hardAlpha"/>
<feMorphology radius="1" operator="dilate" in="SourceAlpha" result="effect2_dropShadow_4005_1188"/>
<feOffset dy="1"/>
<feGaussianBlur stdDeviation="1.5"/>
<feColorMatrix type="matrix" values="0 0 0 0 0 0 0 0 0 0 0 0 0 0 0 0 0 0 0.15 0"/>
<feBlend mode="normal" in2="effect1_dropShadow_4005_1188" result="effect2_dropShadow_4005_1188"/>
<feBlend mode="normal" in="SourceGraphic" in2="effect2_dropShadow_4005_1188" result="shape"/>
</filter>
</defs>
</svg>
